<svg viewBox="0 -7 240 45" xmlns="http://www.w3.org/2000/svg" xmlns:xlink="http://www.w3.org/1999/xlink">
  <title>Animating pen strokes in svg</title>
  <desc>
    This shows how to animate stroking, to simulate a pen drawing.

    The important parts are the 'stroke-dashoffset' and the corresponding 'stroke-dasharray' values,
    which should really be picked depending on the computed length of the path in question.
    Here they've been hardcoded, but they could just as well be taken live from the browser, here's
    how (note that each browser may give slightly different values, but are usually close to the same):

        alert(document.getElementById('strikeout').getTotalLength())

    This can be written directly to the document by javascript if you need to animate a dynamic path.
  </desc>
  <style>
    @font-face {
      font-family: stix;
      src: url(../../fonts/STIXGeneral.otf) format("opentype");
    }
    #strikeout {
      fill:none;
      stroke:red;
      stroke-width:2px;
      stroke-linecap:round;
      stroke-dasharray:54,54;
    }
    text {
      font-size:40px;
      font-family:stix;
      text-anchor:middle;
    }
  </style>
    <text x="50%" y="30">
      Ax + Bx = Cx
    </text>
  <g transform="translate(-164.89344,-451.74024)" id="layer1">
    <path id="strikeout" d="m 218.44,455.19 c -2.35,-1.67 -6.09,-0.53 -6.94,2.66 -0.30,1.89 1.61,2.84 2.95,2.94 1.44,0.01 2.64,1.57 2.27,3.24 -0.46,2.39 -2.88,3.22 -4.76,3.16 -2.03,0.02 -4.46,-0.49 -6.01,1.42 -1.30,1.23 -0.35,2.83 0.06,4.21 0.35,1.57 -0.33,3.73 -1.93,3.80 -1.53,0.01 -3.18,0.57 -4.03,2.18 -0.89,1.39 -0.22,3.16 -0.77,4.69 -0.32,1.40 -0.78,2.90 -0.33,4.34">
      <animate attributeName="stroke-dashoffset" from="54" to="0" dur="1s" begin="rect.click;0s"/>
    </path>
    <use xlink:href="#strikeout" transform="translate(90,0)"/>
    <use xlink:href="#strikeout" transform="translate(185,0)"/>
  </g>
  <rect id="rect" width="100%" height="100%" fill="none" pointer-events="all"/>
</svg>
